# Blender v2.69 (sub 0) OBJ File: ''
# www.blender.org
v -0.057176 0.004376 0.064198
v -0.057176 0.686376 0.064198
v 0.040824 0.686376 0.064198
v 0.040824 0.004376 0.064198
v -0.057176 0.004376 -0.035802
v -0.057176 0.686376 -0.035802
v 0.040824 0.686376 -0.035802
v 0.040824 0.004376 -0.035802
v -0.057176 0.004376 -0.035802
v -0.057176 0.004376 0.064198
v -0.057176 0.686376 -0.035802
v -0.057176 0.686376 0.064198
v 0.040824 0.686376 -0.035802
v 0.040824 0.686376 0.064198
v 0.040824 0.004376 -0.035802
v 0.040824 0.004376 0.064198
vn 0.000000 0.000000 1.000000
vn 0.000000 -0.000000 -1.000000
vn -0.707107 -0.707107 0.000000
vn -0.707107 0.707107 0.000000
vn 0.707107 0.707107 0.000000
vn 0.707107 -0.707107 0.000000
s off
f 1//1 3//1 2//1
f 1//1 4//1 3//1
f 7//2 5//2 6//2
f 8//2 5//2 7//2
s 1
f 10//3 12//4 9//3
f 12//4 14//5 11//4
f 14//5 16//6 13//5
f 16//6 10//3 15//6
f 12//4 11//4 9//3
f 14//5 13//5 11//4
f 16//6 15//6 13//5
f 10//3 9//3 15//6
