# Blender v2.69 (sub 0) OBJ File: ''
# www.blender.org
o Text
v -0.036285 0.412461 0.443218
v 0.023795 0.408826 0.443218
v 0.078104 0.398382 0.443218
v 0.126746 0.381820 0.443218
v 0.169826 0.359831 0.443218
v 0.207447 0.333106 0.443218
v 0.239715 0.302336 0.443218
v 0.266732 0.268211 0.443218
v 0.288604 0.231424 0.443218
v 0.305434 0.192664 0.443218
v 0.317326 0.152623 0.443218
v 0.324385 0.111991 0.443218
v 0.326715 0.071461 0.443218
v 0.323889 0.027989 0.443218
v 0.315525 -0.014563 0.443218
v 0.301793 -0.055649 0.443218
v 0.282863 -0.094725 0.443218
v 0.258905 -0.131245 0.443218
v 0.230090 -0.164664 0.443218
v 0.196587 -0.194438 0.443218
v 0.158567 -0.220021 0.443218
v 0.116199 -0.240868 0.443218
v 0.069655 -0.256433 0.443218
v 0.019103 -0.266172 0.443218
v -0.035285 -0.269539 0.443218
v -0.301285 -0.269539 0.443218
v -0.301285 0.412461 0.443218
v -0.047285 -0.181539 0.443218
v 0.004722 -0.178166 0.443218
v 0.050020 -0.168632 0.443218
v 0.089027 -0.153821 0.443218
v 0.122159 -0.134613 0.443218
v 0.149833 -0.111892 0.443218
v 0.172465 -0.086539 0.443218
v 0.190472 -0.059436 0.443218
v 0.204270 -0.031465 0.443218
v 0.214277 -0.003508 0.443218
v 0.220909 0.023553 0.443218
v 0.224583 0.048837 0.443218
v 0.225715 0.071461 0.443218
v 0.223892 0.105218 0.443218
v 0.218386 0.137771 0.443218
v 0.209137 0.168789 0.443218
v 0.196085 0.197942 0.443218
v 0.179173 0.224901 0.443218
v 0.158340 0.249336 0.443218
v 0.133528 0.270916 0.443218
v 0.104678 0.289312 0.443218
v 0.071730 0.304195 0.443218
v 0.034627 0.315234 0.443218
v -0.006692 0.322099 0.443218
v -0.052285 0.324461 0.443218
v -0.203285 0.324461 0.443218
v -0.203285 -0.181539 0.443218
v -0.036285 0.412461 0.243218
v 0.023795 0.408826 0.243218
v 0.078104 0.398382 0.243218
v 0.126746 0.381820 0.243218
v 0.169826 0.359831 0.243218
v 0.207447 0.333106 0.243218
v 0.239715 0.302336 0.243218
v 0.266732 0.268211 0.243218
v 0.288604 0.231424 0.243218
v 0.305434 0.192664 0.243218
v 0.317326 0.152623 0.243218
v 0.324385 0.111991 0.243218
v 0.326715 0.071461 0.243218
v 0.323889 0.027989 0.243218
v 0.315525 -0.014563 0.243218
v 0.301793 -0.055649 0.243218
v 0.282863 -0.094725 0.243218
v 0.258905 -0.131245 0.243218
v 0.230090 -0.164664 0.243218
v 0.196587 -0.194438 0.243218
v 0.158567 -0.220021 0.243218
v 0.116199 -0.240868 0.243218
v 0.069655 -0.256433 0.243218
v 0.019103 -0.266172 0.243218
v -0.035285 -0.269539 0.243218
v -0.301285 -0.269539 0.243218
v -0.301285 0.412461 0.243218
v -0.047285 -0.181539 0.243218
v 0.004722 -0.178166 0.243218
v 0.050020 -0.168632 0.243218
v 0.089027 -0.153821 0.243218
v 0.122159 -0.134613 0.243218
v 0.149833 -0.111892 0.243218
v 0.172465 -0.086539 0.243218
v 0.190472 -0.059436 0.243218
v 0.204270 -0.031465 0.243218
v 0.214277 -0.003508 0.243218
v 0.220909 0.023553 0.243218
v 0.224583 0.048837 0.243218
v 0.225715 0.071461 0.243218
v 0.223892 0.105218 0.243218
v 0.218386 0.137771 0.243218
v 0.209137 0.168789 0.243218
v 0.196085 0.197942 0.243218
v 0.179173 0.224901 0.243218
v 0.158340 0.249336 0.243218
v 0.133528 0.270916 0.243218
v 0.104678 0.289312 0.243218
v 0.071730 0.304195 0.243218
v 0.034627 0.315234 0.243218
v -0.006692 0.322099 0.243218
v -0.052285 0.324461 0.243218
v -0.203285 0.324461 0.243218
v -0.203285 -0.181539 0.243218
v -0.036285 0.412461 0.243218
v -0.036285 0.412461 0.443218
v 0.023795 0.408826 0.243218
v 0.023795 0.408826 0.443218
v 0.078104 0.398382 0.243218
v 0.078104 0.398382 0.443218
v 0.126746 0.381820 0.243218
v 0.126746 0.381820 0.443218
v 0.169826 0.359831 0.243218
v 0.169826 0.359831 0.443218
v 0.207447 0.333106 0.243218
v 0.207447 0.333106 0.443218
v 0.239715 0.302336 0.243218
v 0.239715 0.302336 0.443218
v 0.266732 0.268211 0.243218
v 0.266732 0.268211 0.443218
v 0.288604 0.231424 0.243218
v 0.288604 0.231424 0.443218
v 0.305434 0.192664 0.243218
v 0.305434 0.192664 0.443218
v 0.317326 0.152623 0.243218
v 0.317326 0.152623 0.443218
v 0.324385 0.111991 0.243218
v 0.324385 0.111991 0.443218
v 0.326715 0.071461 0.243218
v 0.326715 0.071461 0.443218
v 0.323889 0.027989 0.243218
v 0.323889 0.027989 0.443218
v 0.315525 -0.014563 0.243218
v 0.315525 -0.014563 0.443218
v 0.301793 -0.055649 0.243218
v 0.301793 -0.055649 0.443218
v 0.282863 -0.094725 0.243218
v 0.282863 -0.094725 0.443218
v 0.258905 -0.131245 0.243218
v 0.258905 -0.131245 0.443218
v 0.230090 -0.164664 0.243218
v 0.230090 -0.164664 0.443218
v 0.196587 -0.194438 0.243218
v 0.196587 -0.194438 0.443218
v 0.158567 -0.220021 0.243218
v 0.158567 -0.220021 0.443218
v 0.116199 -0.240868 0.243218
v 0.116199 -0.240868 0.443218
v 0.069655 -0.256433 0.243218
v 0.069655 -0.256433 0.443218
v 0.019103 -0.266172 0.243218
v 0.019103 -0.266172 0.443218
v -0.035285 -0.269539 0.243218
v -0.035285 -0.269539 0.443218
v -0.301285 -0.269539 0.243218
v -0.301285 -0.269539 0.443218
v -0.301285 0.412461 0.243218
v -0.301285 0.412461 0.443218
v -0.047285 -0.181539 0.243218
v -0.047285 -0.181539 0.443218
v 0.004722 -0.178166 0.243218
v 0.004722 -0.178166 0.443218
v 0.050020 -0.168632 0.243218
v 0.050020 -0.168632 0.443218
v 0.089027 -0.153821 0.243218
v 0.089027 -0.153821 0.443218
v 0.122159 -0.134613 0.243218
v 0.122159 -0.134613 0.443218
v 0.149833 -0.111892 0.243218
v 0.149833 -0.111892 0.443218
v 0.172465 -0.086539 0.243218
v 0.172465 -0.086539 0.443218
v 0.190472 -0.059436 0.243218
v 0.190472 -0.059436 0.443218
v 0.204270 -0.031465 0.243218
v 0.204270 -0.031465 0.443218
v 0.214277 -0.003508 0.243218
v 0.214277 -0.003508 0.443218
v 0.220909 0.023553 0.243218
v 0.220909 0.023553 0.443218
v 0.224583 0.048837 0.243218
v 0.224583 0.048837 0.443218
v 0.225715 0.071461 0.243218
v 0.225715 0.071461 0.443218
v 0.223892 0.105218 0.243218
v 0.223892 0.105218 0.443218
v 0.218386 0.137771 0.243218
v 0.218386 0.137771 0.443218
v 0.209137 0.168789 0.243218
v 0.209137 0.168789 0.443218
v 0.196085 0.197942 0.243218
v 0.196085 0.197942 0.443218
v 0.179173 0.224901 0.243218
v 0.179173 0.224901 0.443218
v 0.158340 0.249336 0.243218
v 0.158340 0.249336 0.443218
v 0.133528 0.270916 0.243218
v 0.133528 0.270916 0.443218
v 0.104678 0.289312 0.243218
v 0.104678 0.289312 0.443218
v 0.071730 0.304195 0.243218
v 0.071730 0.304195 0.443218
v 0.034627 0.315234 0.243218
v 0.034627 0.315234 0.443218
v -0.006692 0.322099 0.243218
v -0.006692 0.322099 0.443218
v -0.052285 0.324461 0.243218
v -0.052285 0.324461 0.443218
v -0.203285 0.324461 0.243218
v -0.203285 0.324461 0.443218
v -0.203285 -0.181539 0.243218
v -0.203285 -0.181539 0.443218
vn -0.000000 0.000000 1.000000
vn 0.000001 0.000000 1.000000
vn 0.000002 0.000000 1.000000
vn -0.000001 0.000000 1.000000
vn -0.000000 0.000001 1.000000
vn 0.000000 -0.000000 -1.000000
vn 0.000000 -0.000001 -1.000000
vn 0.030209 0.999544 0.000000
vn 0.124879 0.992172 0.000000
vn 0.256190 0.966626 0.000000
vn 0.389475 0.921037 0.000000
vn 0.518248 0.855230 0.000000
vn 0.636268 0.771468 0.000000
vn 0.738866 0.673853 0.000000
vn 0.823618 0.567145 0.000000
vn 0.890197 0.455575 0.000000
vn 0.939655 0.342122 0.000000
vn 0.973584 0.228329 0.000000
vn 0.993427 0.114468 0.000000
vn 0.973584 0.228328 0.000000
vn 0.999993 -0.003746 0.000000
vn 0.993427 0.114467 0.000000
vn 0.991627 -0.129139 0.000000
vn 0.999993 -0.003747 0.000000
vn 0.966821 -0.255457 0.000000
vn 0.926106 -0.377262 0.000000
vn 0.966820 -0.255457 0.000000
vn 0.869870 -0.493281 0.000000
vn 0.926106 -0.377263 0.000000
vn 0.798455 -0.602054 0.000000
vn 0.869870 -0.493280 0.000000
vn 0.712383 -0.701791 0.000000
vn 0.612650 -0.790355 0.000000
vn 0.501017 -0.865437 0.000000
vn 0.612650 -0.790354 0.000000
vn 0.380184 -0.924911 0.000000
vn 0.501018 -0.865437 0.000000
vn 0.253721 -0.967277 0.000000
vn 0.125746 -0.992062 0.000000
vn 0.030913 -0.999522 0.000000
vn -0.707107 -0.707107 0.000000
vn -0.707107 0.707107 0.000000
vn -0.032385 0.999476 -0.000000
vn -0.135688 0.990752 0.000000
vn -0.032386 0.999475 0.000000
vn -0.281314 0.959616 -0.000000
vn -0.429675 0.902983 -0.000000
vn -0.569917 0.821702 -0.000000
vn -0.692350 0.721562 -0.000000
vn -0.791469 0.611210 -0.000000
vn -0.866646 0.498923 -0.000000
vn -0.920668 0.390348 -0.000000
vn -0.957661 0.287899 -0.000000
vn -0.920668 0.390346 -0.000000
vn -0.981565 0.191127 0.000000
vn -0.957661 0.287898 0.000000
vn -0.995286 0.096986 0.000000
vn -0.999998 -0.001968 0.000000
vn -0.993874 -0.110522 0.000000
vn -0.999998 -0.001969 0.000000
vn -0.973966 -0.226696 0.000000
vn -0.937520 -0.347932 0.000000
vn -0.973966 -0.226695 0.000000
vn -0.882047 -0.471161 0.000000
vn -0.937520 -0.347931 0.000000
vn -0.806173 -0.591680 0.000000
vn -0.710584 -0.703613 0.000000
vn -0.806172 -0.591681 0.000000
vn -0.598599 -0.801049 0.000000
vn -0.475876 -0.879512 0.000000
vn -0.598600 -0.801049 0.000000
vn -0.349205 -0.937046 0.000000
vn -0.224967 -0.974366 0.000000
vn -0.107989 -0.994152 0.000000
vn -0.025874 -0.999665 0.000000
vn 0.707107 -0.707107 0.000000
vn 0.707107 0.707107 -0.000000
s off
f 26//1 53//1 27//1
f 53//1 1//1 27//1
f 53//1 2//1 1//1
f 53//2 3//2 2//2
f 53//1 4//1 3//1
f 53//1 5//1 4//1
f 53//1 6//1 5//1
f 53//1 52//1 6//1
f 52//1 51//1 6//1
f 51//1 7//1 6//1
f 26//1 54//1 53//1
f 50//3 7//3 51//3
f 49//4 7//4 50//4
f 48//1 7//1 49//1
f 48//1 8//1 7//1
f 47//1 8//1 48//1
f 46//1 8//1 47//1
f 46//1 9//1 8//1
f 45//1 9//1 46//1
f 45//4 10//4 9//4
f 44//2 10//2 45//2
f 43//1 10//1 44//1
f 43//1 11//1 10//1
f 42//1 11//1 43//1
f 42//1 12//1 11//1
f 41//1 12//1 42//1
f 41//1 13//1 12//1
f 40//1 13//1 41//1
f 39//1 13//1 40//1
f 39//1 14//1 13//1
f 38//2 14//2 39//2
f 38//2 15//2 14//2
f 37//1 15//1 38//1
f 36//5 15//5 37//5
f 36//5 16//5 15//5
f 35//2 16//2 36//2
f 35//1 17//1 16//1
f 34//1 17//1 35//1
f 33//1 17//1 34//1
f 33//1 18//1 17//1
f 32//1 18//1 33//1
f 32//1 19//1 18//1
f 31//2 19//2 32//2
f 30//1 19//1 31//1
f 30//1 20//1 19//1
f 29//1 20//1 30//1
f 28//4 20//4 29//4
f 26//1 28//1 54//1
f 26//1 20//1 28//1
f 26//1 21//1 20//1
f 26//1 22//1 21//1
f 26//1 23//1 22//1
f 26//1 24//1 23//1
f 26//1 25//1 24//1
f 107//6 80//6 81//6
f 55//6 107//6 81//6
f 56//6 107//6 55//6
f 57//6 107//6 56//6
f 58//6 107//6 57//6
f 59//6 107//6 58//6
f 60//6 107//6 59//6
f 106//6 107//6 60//6
f 105//6 106//6 60//6
f 61//6 105//6 60//6
f 108//6 80//6 107//6
f 61//6 104//6 105//6
f 61//6 103//6 104//6
f 61//6 102//6 103//6
f 62//6 102//6 61//6
f 62//7 101//7 102//7
f 62//6 100//6 101//6
f 63//6 100//6 62//6
f 63//6 99//6 100//6
f 64//6 99//6 63//6
f 64//6 98//6 99//6
f 64//7 97//7 98//7
f 65//6 97//6 64//6
f 65//6 96//6 97//6
f 66//6 96//6 65//6
f 66//6 95//6 96//6
f 67//6 95//6 66//6
f 67//6 94//6 95//6
f 67//6 93//6 94//6
f 68//6 93//6 67//6
f 68//6 92//6 93//6
f 69//6 92//6 68//6
f 69//6 91//6 92//6
f 69//6 90//6 91//6
f 70//6 90//6 69//6
f 70//6 89//6 90//6
f 71//6 89//6 70//6
f 71//6 88//6 89//6
f 71//6 87//6 88//6
f 72//6 87//6 71//6
f 72//7 86//7 87//7
f 73//6 86//6 72//6
f 73//6 85//6 86//6
f 73//6 84//6 85//6
f 74//6 84//6 73//6
f 74//6 83//6 84//6
f 74//6 82//6 83//6
f 82//6 80//6 108//6
f 74//6 80//6 82//6
f 75//6 80//6 74//6
f 76//7 80//7 75//7
f 77//6 80//6 76//6
f 78//6 80//6 77//6
f 79//6 80//6 78//6
s 1
f 110//8 112//9 109//8
f 112//9 114//10 111//9
f 114//10 116//11 113//10
f 116//11 118//12 115//11
f 118//12 120//13 117//12
f 120//13 122//14 119//13
f 122//14 124//15 121//14
f 124//15 126//16 123//15
f 126//16 128//17 125//16
f 128//17 130//18 127//17
f 130//18 132//19 129//20
f 132//19 134//21 131//22
f 134//21 136//23 133//24
f 136//23 138//25 135//23
f 138//25 140//26 137//27
f 140//26 142//28 139//29
f 142//28 144//30 141//31
f 144//30 146//32 143//30
f 146//32 148//33 145//32
f 148//33 150//34 147//35
f 150//34 152//36 149//37
f 152//36 154//38 151//36
f 154//38 156//39 153//38
f 156//39 158//40 155//39
f 158//40 160//41 157//40
f 160//41 162//42 159//41
f 162//42 110//8 161//42
f 164//43 166//44 163//45
f 166//44 168//46 165//44
f 168//46 170//47 167//46
f 170//47 172//48 169//47
f 172//48 174//49 171//48
f 174//49 176//50 173//49
f 176//50 178//51 175//50
f 178//51 180//52 177//51
f 180//52 182//53 179//54
f 182//53 184//55 181//56
f 184//55 186//57 183//55
f 186//57 188//58 185//57
f 188//58 190//59 187//60
f 190//59 192//61 189//59
f 192//61 194//62 191//63
f 194//62 196//64 193//65
f 196//64 198//66 195//64
f 198//66 200//67 197//68
f 200//67 202//69 199//67
f 202//69 204//70 201//71
f 204//70 206//72 203//70
f 206//72 208//73 205//72
f 208//73 210//74 207//73
f 210//74 212//75 209//74
f 212//75 214//76 211//75
f 214//76 216//77 213//76
f 216//77 164//43 215//77
f 112//9 111//9 109//8
f 114//10 113//10 111//9
f 116//11 115//11 113//10
f 118//12 117//12 115//11
f 120//13 119//13 117//12
f 122//14 121//14 119//13
f 124//15 123//15 121//14
f 126//16 125//16 123//15
f 128//17 127//17 125//16
f 130//18 129//20 127//17
f 132//19 131//22 129//20
f 134//21 133//24 131//22
f 136//23 135//23 133//24
f 138//25 137//27 135//23
f 140//26 139//29 137//27
f 142//28 141//31 139//29
f 144//30 143//30 141//31
f 146//32 145//32 143//30
f 148//33 147//35 145//32
f 150//34 149//37 147//35
f 152//36 151//36 149//37
f 154//38 153//38 151//36
f 156//39 155//39 153//38
f 158//40 157//40 155//39
f 160//41 159//41 157//40
f 162//42 161//42 159//41
f 110//8 109//8 161//42
f 166//44 165//44 163//45
f 168//46 167//46 165//44
f 170//47 169//47 167//46
f 172//48 171//48 169//47
f 174//49 173//49 171//48
f 176//50 175//50 173//49
f 178//51 177//51 175//50
f 180//52 179//54 177//51
f 182//53 181//56 179//54
f 184//55 183//55 181//56
f 186//57 185//57 183//55
f 188//58 187//60 185//57
f 190//59 189//59 187//60
f 192//61 191//63 189//59
f 194//62 193//65 191//63
f 196//64 195//64 193//65
f 198//66 197//68 195//64
f 200//67 199//67 197//68
f 202//69 201//71 199//67
f 204//70 203//70 201//71
f 206//72 205//72 203//70
f 208//73 207//73 205//72
f 210//74 209//74 207//73
f 212//75 211//75 209//74
f 214//76 213//76 211//75
f 216//77 215//77 213//76
f 164//43 163//45 215//77
