# Blender v2.69 (sub 0) OBJ File: ''
# www.blender.org
o Text
v -0.079285 0.324461 0.443218
v -0.079285 0.118461 0.443218
v 0.199715 0.118461 0.443218
v 0.199715 0.030461 0.443218
v -0.079285 0.030461 0.443218
v -0.079285 -0.181539 0.443218
v 0.218715 -0.181539 0.443218
v 0.218715 -0.269539 0.443218
v -0.177285 -0.269539 0.443218
v -0.177285 0.412461 0.443218
v 0.209715 0.412461 0.443218
v 0.209715 0.324461 0.443218
v -0.079285 0.324461 0.243218
v -0.079285 0.118461 0.243218
v 0.199715 0.118461 0.243218
v 0.199715 0.030461 0.243218
v -0.079285 0.030461 0.243218
v -0.079285 -0.181539 0.243218
v 0.218715 -0.181539 0.243218
v 0.218715 -0.269539 0.243218
v -0.177285 -0.269539 0.243218
v -0.177285 0.412461 0.243218
v 0.209715 0.412461 0.243218
v 0.209715 0.324461 0.243218
v -0.079285 0.324461 0.243218
v -0.079285 0.324461 0.443218
v -0.079285 0.118461 0.243218
v -0.079285 0.118461 0.443218
v 0.199715 0.118461 0.243218
v 0.199715 0.118461 0.443218
v 0.199715 0.030461 0.243218
v 0.199715 0.030461 0.443218
v -0.079285 0.030461 0.243218
v -0.079285 0.030461 0.443218
v -0.079285 -0.181539 0.243218
v -0.079285 -0.181539 0.443218
v 0.218715 -0.181539 0.243218
v 0.218715 -0.181539 0.443218
v 0.218715 -0.269539 0.243218
v 0.218715 -0.269539 0.443218
v -0.177285 -0.269539 0.243218
v -0.177285 -0.269539 0.443218
v -0.177285 0.412461 0.243218
v -0.177285 0.412461 0.443218
v 0.209715 0.412461 0.243218
v 0.209715 0.412461 0.443218
v 0.209715 0.324461 0.243218
v 0.209715 0.324461 0.443218
vn -0.000000 0.000000 1.000000
vn 0.000001 0.000000 1.000000
vn 0.000000 -0.000000 -1.000000
vn 0.707107 -0.707107 0.000000
vn 0.707107 0.707107 0.000000
vn -0.707107 -0.707107 0.000000
vn -0.707107 0.707107 0.000000
s off
f 9//1 1//1 10//1
f 1//1 11//1 10//1
f 1//1 12//1 11//1
f 9//2 2//2 1//2
f 9//1 5//1 2//1
f 5//1 3//1 2//1
f 5//1 4//1 3//1
f 9//1 6//1 5//1
f 9//1 7//1 6//1
f 9//1 8//1 7//1
f 13//3 21//3 22//3
f 23//3 13//3 22//3
f 24//3 13//3 23//3
f 14//3 21//3 13//3
f 17//3 21//3 14//3
f 15//3 17//3 14//3
f 16//3 17//3 15//3
f 18//3 21//3 17//3
f 19//3 21//3 18//3
f 20//3 21//3 19//3
s 1
f 26//4 28//5 25//4
f 28//5 30//5 27//5
f 30//5 32//4 29//5
f 32//4 34//4 31//4
f 34//4 36//5 33//4
f 36//5 38//5 35//5
f 38//5 40//4 37//5
f 40//4 42//6 39//4
f 42//6 44//7 41//6
f 44//7 46//5 43//7
f 46//5 48//4 45//5
f 48//4 26//4 47//4
f 28//5 27//5 25//4
f 30//5 29//5 27//5
f 32//4 31//4 29//5
f 34//4 33//4 31//4
f 36//5 35//5 33//4
f 38//5 37//5 35//5
f 40//4 39//4 37//5
f 42//6 41//6 39//4
f 44//7 43//7 41//6
f 46//5 45//5 43//7
f 48//4 47//4 45//5
f 26//4 25//4 47//4
