# Blender v2.69 (sub 0) OBJ File: ''
# www.blender.org
o Text
v 0.188215 -0.269539 0.443218
v 0.188215 0.027461 0.443218
v -0.193785 0.027461 0.443218
v -0.193785 -0.269539 0.443218
v -0.291785 -0.269539 0.443218
v -0.291785 0.412461 0.443218
v -0.193785 0.412461 0.443218
v -0.193785 0.115461 0.443218
v 0.188215 0.115461 0.443218
v 0.188215 0.412461 0.443218
v 0.286215 0.412461 0.443218
v 0.286215 -0.269539 0.443218
v 0.188215 -0.269539 0.243218
v 0.188215 0.027461 0.243218
v -0.193785 0.027461 0.243218
v -0.193785 -0.269539 0.243218
v -0.291785 -0.269539 0.243218
v -0.291785 0.412461 0.243218
v -0.193785 0.412461 0.243218
v -0.193785 0.115461 0.243218
v 0.188215 0.115461 0.243218
v 0.188215 0.412461 0.243218
v 0.286215 0.412461 0.243218
v 0.286215 -0.269539 0.243218
v 0.188215 -0.269539 0.243218
v 0.188215 -0.269539 0.443218
v 0.188215 0.027461 0.243218
v 0.188215 0.027461 0.443218
v -0.193785 0.027461 0.243218
v -0.193785 0.027461 0.443218
v -0.193785 -0.269539 0.243218
v -0.193785 -0.269539 0.443218
v -0.291785 -0.269539 0.243218
v -0.291785 -0.269539 0.443218
v -0.291785 0.412461 0.243218
v -0.291785 0.412461 0.443218
v -0.193785 0.412461 0.243218
v -0.193785 0.412461 0.443218
v -0.193785 0.115461 0.243218
v -0.193785 0.115461 0.443218
v 0.188215 0.115461 0.243218
v 0.188215 0.115461 0.443218
v 0.188215 0.412461 0.243218
v 0.188215 0.412461 0.443218
v 0.286215 0.412461 0.243218
v 0.286215 0.412461 0.443218
v 0.286215 -0.269539 0.243218
v 0.286215 -0.269539 0.443218
vn 0.000000 0.000000 1.000000
vn -0.000001 0.000000 1.000000
vn 0.000000 -0.000000 -1.000000
vn 0.000001 -0.000000 -1.000000
vn -0.707107 -0.707107 0.000000
vn 0.707107 -0.707107 0.000000
vn -0.707107 0.707107 0.000000
vn 0.707107 0.707107 0.000000
s off
f 5//1 7//1 6//1
f 5//2 8//2 7//2
f 9//1 11//1 10//1
f 9//1 12//1 11//1
f 5//1 3//1 8//1
f 3//1 9//1 8//1
f 3//1 2//1 9//1
f 2//1 12//1 9//1
f 5//1 4//1 3//1
f 1//1 12//1 2//1
f 19//3 17//3 18//3
f 20//4 17//4 19//4
f 23//3 21//3 22//3
f 24//3 21//3 23//3
f 15//3 17//3 20//3
f 21//3 15//3 20//3
f 14//3 15//3 21//3
f 24//3 14//3 21//3
f 16//3 17//3 15//3
f 24//3 13//3 14//3
s 1
f 26//5 28//5 25//5
f 28//5 30//6 27//5
f 30//6 32//6 29//6
f 32//6 34//5 31//6
f 34//5 36//7 33//5
f 36//7 38//8 35//7
f 38//8 40//8 37//8
f 40//8 42//7 39//8
f 42//7 44//7 41//7
f 44//7 46//8 43//7
f 46//8 48//6 45//8
f 48//6 26//5 47//6
f 28//5 27//5 25//5
f 30//6 29//6 27//5
f 32//6 31//6 29//6
f 34//5 33//5 31//6
f 36//7 35//7 33//5
f 38//8 37//8 35//7
f 40//8 39//8 37//8
f 42//7 41//7 39//8
f 44//7 43//7 41//7
f 46//8 45//8 43//7
f 48//6 47//6 45//8
f 26//5 25//5 47//6
