# Blender v2.69 (sub 0) OBJ File: ''
# www.blender.org
o Text
v 0.045632 -0.308586 0.443218
v 0.042303 -0.338081 0.443218
v 0.036605 -0.365805 0.443218
v 0.028418 -0.391539 0.443218
v 0.017620 -0.415065 0.443218
v 0.004090 -0.436164 0.443218
v -0.012295 -0.454618 0.443218
v -0.031656 -0.470206 0.443218
v -0.054113 -0.482711 0.443218
v -0.079790 -0.491914 0.443218
v -0.108807 -0.497597 0.443218
v -0.141285 -0.499539 0.443218
v -0.144205 -0.499519 0.443218
v -0.146980 -0.499461 0.443218
v -0.149629 -0.499368 0.443218
v -0.152174 -0.499243 0.443218
v -0.154636 -0.499091 0.443218
v -0.157035 -0.498914 0.443218
v -0.159393 -0.498717 0.443218
v -0.161730 -0.498502 0.443218
v -0.164067 -0.498274 0.443218
v -0.166424 -0.498035 0.443218
v -0.168823 -0.497789 0.443218
v -0.171285 -0.497539 0.443218
v -0.189285 -0.406539 0.443218
v -0.164285 -0.406539 0.443218
v -0.140215 -0.405455 0.443218
v -0.119804 -0.402197 0.443218
v -0.102754 -0.396758 0.443218
v -0.088767 -0.389132 0.443218
v -0.077543 -0.379311 0.443218
v -0.068785 -0.367289 0.443218
v -0.062194 -0.353059 0.443218
v -0.057470 -0.336613 0.443218
v -0.054317 -0.317946 0.443218
v -0.052433 -0.297049 0.443218
v -0.051523 -0.273916 0.443218
v -0.051285 -0.248539 0.443218
v -0.051285 0.412461 0.443218
v 0.046715 0.412461 0.443218
v 0.046715 -0.277539 0.443218
v 0.045632 -0.308586 0.243218
v 0.042303 -0.338081 0.243218
v 0.036605 -0.365805 0.243218
v 0.028418 -0.391539 0.243218
v 0.017620 -0.415065 0.243218
v 0.004090 -0.436164 0.243218
v -0.012295 -0.454618 0.243218
v -0.031656 -0.470206 0.243218
v -0.054113 -0.482711 0.243218
v -0.079790 -0.491914 0.243218
v -0.108807 -0.497597 0.243218
v -0.141285 -0.499539 0.243218
v -0.144205 -0.499519 0.243218
v -0.146980 -0.499461 0.243218
v -0.149629 -0.499368 0.243218
v -0.152174 -0.499243 0.243218
v -0.154636 -0.499091 0.243218
v -0.157035 -0.498914 0.243218
v -0.159393 -0.498717 0.243218
v -0.161730 -0.498502 0.243218
v -0.164067 -0.498274 0.243218
v -0.166424 -0.498035 0.243218
v -0.168823 -0.497789 0.243218
v -0.171285 -0.497539 0.243218
v -0.189285 -0.406539 0.243218
v -0.164285 -0.406539 0.243218
v -0.140215 -0.405455 0.243218
v -0.119804 -0.402197 0.243218
v -0.102754 -0.396758 0.243218
v -0.088767 -0.389132 0.243218
v -0.077543 -0.379311 0.243218
v -0.068785 -0.367289 0.243218
v -0.062194 -0.353059 0.243218
v -0.057470 -0.336614 0.243218
v -0.054317 -0.317946 0.243218
v -0.052433 -0.297049 0.243218
v -0.051523 -0.273916 0.243218
v -0.051285 -0.248539 0.243218
v -0.051285 0.412461 0.243218
v 0.046715 0.412461 0.243218
v 0.046715 -0.277539 0.243218
v 0.045632 -0.308586 0.243218
v 0.045632 -0.308586 0.443218
v 0.042303 -0.338081 0.243218
v 0.042303 -0.338081 0.443218
v 0.036605 -0.365805 0.243218
v 0.036605 -0.365805 0.443218
v 0.028418 -0.391539 0.243218
v 0.028418 -0.391539 0.443218
v 0.017620 -0.415065 0.243218
v 0.017620 -0.415065 0.443218
v 0.004090 -0.436164 0.243218
v 0.004090 -0.436164 0.443218
v -0.012295 -0.454618 0.243218
v -0.012295 -0.454618 0.443218
v -0.031656 -0.470206 0.243218
v -0.031656 -0.470206 0.443218
v -0.054113 -0.482711 0.243218
v -0.054113 -0.482711 0.443218
v -0.079790 -0.491914 0.243218
v -0.079790 -0.491914 0.443218
v -0.108807 -0.497597 0.243218
v -0.108807 -0.497597 0.443218
v -0.141285 -0.499539 0.243218
v -0.141285 -0.499539 0.443218
v -0.144205 -0.499519 0.243218
v -0.144205 -0.499519 0.443218
v -0.146980 -0.499461 0.243218
v -0.146980 -0.499461 0.443218
v -0.149629 -0.499368 0.243218
v -0.149629 -0.499368 0.443218
v -0.152174 -0.499243 0.243218
v -0.152174 -0.499243 0.443218
v -0.154636 -0.499091 0.243218
v -0.154636 -0.499091 0.443218
v -0.157035 -0.498914 0.243218
v -0.157035 -0.498914 0.443218
v -0.159393 -0.498717 0.243218
v -0.159393 -0.498717 0.443218
v -0.161730 -0.498502 0.243218
v -0.161730 -0.498502 0.443218
v -0.164067 -0.498274 0.243218
v -0.164067 -0.498274 0.443218
v -0.166424 -0.498035 0.243218
v -0.166424 -0.498035 0.443218
v -0.168823 -0.497789 0.243218
v -0.168823 -0.497789 0.443218
v -0.171285 -0.497539 0.243218
v -0.171285 -0.497539 0.443218
v -0.189285 -0.406539 0.243218
v -0.189285 -0.406539 0.443218
v -0.164285 -0.406539 0.243218
v -0.164285 -0.406539 0.443218
v -0.140215 -0.405455 0.243218
v -0.140215 -0.405455 0.443218
v -0.119804 -0.402197 0.243218
v -0.119804 -0.402197 0.443218
v -0.102754 -0.396758 0.243218
v -0.102754 -0.396758 0.443218
v -0.088767 -0.389132 0.243218
v -0.088767 -0.389132 0.443218
v -0.077543 -0.379311 0.243218
v -0.077543 -0.379311 0.443218
v -0.068785 -0.367289 0.243218
v -0.068785 -0.367289 0.443218
v -0.062194 -0.353059 0.243218
v -0.062194 -0.353059 0.443218
v -0.057470 -0.336614 0.243218
v -0.057470 -0.336613 0.443218
v -0.054317 -0.317946 0.243218
v -0.054317 -0.317946 0.443218
v -0.052433 -0.297049 0.243218
v -0.052433 -0.297049 0.443218
v -0.051523 -0.273916 0.243218
v -0.051523 -0.273916 0.443218
v -0.051285 -0.248539 0.243218
v -0.051285 -0.248539 0.443218
v -0.051285 0.412461 0.243218
v -0.051285 0.412461 0.443218
v 0.046715 0.412461 0.243218
v 0.046715 0.412461 0.443218
v 0.046715 -0.277539 0.243218
v 0.046715 -0.277539 0.443218
vn 0.000000 0.000000 1.000000
vn -0.000001 0.000000 1.000000
vn -0.000001 0.000001 1.000000
vn 0.000001 0.000002 1.000000
vn 0.000001 0.000000 1.000000
vn -0.000002 0.000000 1.000000
vn 0.000036 0.000000 1.000000
vn -0.000031 0.000000 1.000000
vn 0.000064 0.000000 1.000000
vn 0.000000 -0.000000 -1.000000
vn -0.000001 0.000000 -1.000000
vn 0.000001 0.000000 -1.000000
vn 0.000008 0.000000 -1.000000
vn -0.000018 0.000000 -1.000000
vn 0.000016 0.000000 -1.000000
vn -0.000007 0.000000 -1.000000
vn -0.000004 0.000000 -1.000000
vn 0.000017 0.000000 -1.000000
vn -0.000006 0.000000 -1.000000
vn -0.000011 0.000000 -1.000000
vn 0.997290 -0.073565 0.000000
vn 0.987616 -0.156890 0.000000
vn 0.967577 -0.252578 0.000000
vn 0.932633 -0.360825 0.000000
vn 0.877456 -0.479658 0.000000
vn 0.797193 -0.603725 0.000000
vn 0.877455 -0.479658 0.000000
vn 0.689857 -0.723946 0.000000
vn 0.558834 -0.829279 0.000000
vn 0.689857 -0.723945 0.000000
vn 0.413338 -0.910578 0.000000
vn 0.558835 -0.829279 0.000000
vn 0.265546 -0.964098 0.000000
vn 0.413339 -0.910577 0.000000
vn 0.126225 -0.992002 0.000000
vn 0.265547 -0.964098 0.000000
vn 0.026399 -0.999652 0.000000
vn 0.126224 -0.992002 0.000000
vn -0.014001 -0.999902 0.000000
vn 0.026399 -0.999651 0.000000
vn -0.028103 -0.999605 0.000000
vn -0.041993 -0.999118 0.000000
vn -0.028108 -0.999605 0.000000
vn -0.055269 -0.998472 0.000000
vn -0.041987 -0.999118 0.000000
vn -0.067535 -0.997717 0.000000
vn -0.055269 -0.998471 0.000000
vn -0.078388 -0.996923 0.000000
vn -0.067540 -0.997717 0.000000
vn -0.087447 -0.996169 0.000000
vn -0.078389 -0.996923 0.000000
vn -0.094423 -0.995532 0.000000
vn -0.087454 -0.996169 0.000000
vn -0.099109 -0.995077 0.000000
vn -0.101414 -0.994844 0.000000
vn -0.099102 -0.995077 0.000000
vn -0.101388 -0.994847 0.000000
vn -0.672994 -0.739648 0.000000
vn -0.101382 -0.994848 0.000000
vn -0.772672 0.634806 -0.000000
vn -0.672984 -0.739657 0.000000
vn -0.022510 0.999747 -0.000000
vn -0.101482 0.994837 -0.000000
vn -0.231421 0.972854 0.000000
vn -0.101483 0.994837 0.000000
vn -0.393076 0.919506 -0.000000
vn -0.231420 0.972854 -0.000000
vn -0.572049 0.820220 -0.000000
vn -0.393077 0.919506 -0.000000
vn -0.737942 0.674864 0.000000
vn -0.572049 0.820219 0.000000
vn -0.861952 0.506990 0.000000
vn -0.937044 0.349211 -0.000000
vn -0.861952 0.506989 -0.000000
vn -0.975122 0.221670 0.000000
vn -0.991740 0.128266 0.000000
vn -0.997913 0.064568 -0.000000
vn -0.999704 0.024350 -0.000000
vn -0.999989 0.004675 0.000000
vn -0.999703 0.024350 -0.000000
vn -0.707107 0.707107 0.000000
vn 0.707107 0.707107 0.000000
vn 0.999848 -0.017430 0.000000
s off
f 38//1 40//1 39//1
f 38//2 41//2 40//2
f 37//1 41//1 38//1
f 36//1 41//1 37//1
f 36//1 1//1 41//1
f 35//1 1//1 36//1
f 35//3 2//3 1//3
f 34//4 2//4 35//4
f 33//1 2//1 34//1
f 33//5 3//5 2//5
f 32//1 3//1 33//1
f 32//1 4//1 3//1
f 31//1 4//1 32//1
f 30//1 4//1 31//1
f 29//1 4//1 30//1
f 29//1 5//1 4//1
f 28//6 5//6 29//6
f 27//1 5//1 28//1
f 26//1 5//1 27//1
f 24//1 26//1 25//1
f 24//1 5//1 26//1
f 24//1 6//1 5//1
f 24//1 7//1 6//1
f 24//2 8//2 7//2
f 24//1 9//1 8//1
f 24//1 10//1 9//1
f 24//1 11//1 10//1
f 23//1 11//1 24//1
f 23//1 12//1 11//1
f 22//1 12//1 23//1
f 21//1 12//1 22//1
f 20//1 12//1 21//1
f 19//1 12//1 20//1
f 18//7 12//7 19//7
f 17//1 12//1 18//1
f 16//8 12//8 17//8
f 15//1 12//1 16//1
f 14//1 12//1 15//1
f 13//9 12//9 14//9
f 81//10 79//10 80//10
f 82//10 79//10 81//10
f 82//10 78//10 79//10
f 82//10 77//10 78//10
f 42//10 77//10 82//10
f 42//10 76//10 77//10
f 43//10 76//10 42//10
f 43//10 75//10 76//10
f 43//10 74//10 75//10
f 44//10 74//10 43//10
f 44//10 73//10 74//10
f 45//10 73//10 44//10
f 45//10 72//10 73//10
f 45//10 71//10 72//10
f 45//10 70//10 71//10
f 46//10 70//10 45//10
f 46//10 69//10 70//10
f 46//10 68//10 69//10
f 46//10 67//10 68//10
f 67//10 65//10 66//10
f 46//10 65//10 67//10
f 47//10 65//10 46//10
f 48//10 65//10 47//10
f 49//11 65//11 48//11
f 50//10 65//10 49//10
f 51//12 65//12 50//12
f 52//10 65//10 51//10
f 52//10 64//10 65//10
f 53//10 64//10 52//10
f 53//13 63//13 64//13
f 53//14 62//14 63//14
f 53//15 61//15 62//15
f 53//16 60//16 61//16
f 53//17 59//17 60//17
f 53//18 58//18 59//18
f 53//10 57//10 58//10
f 53//19 56//19 57//19
f 53//20 55//20 56//20
f 53//10 54//10 55//10
s 1
f 84//21 86//22 83//21
f 86//22 88//23 85//22
f 88//23 90//24 87//23
f 90//24 92//25 89//24
f 92//25 94//26 91//27
f 94//26 96//28 93//26
f 96//28 98//29 95//30
f 98//29 100//31 97//32
f 100//31 102//33 99//34
f 102//33 104//35 101//36
f 104//35 106//37 103//38
f 106//37 108//39 105//40
f 108//39 110//41 107//39
f 110//41 112//42 109//43
f 112//42 114//44 111//45
f 114//44 116//46 113//47
f 116//46 118//48 115//49
f 118//48 120//50 117//51
f 120//50 122//52 119//53
f 122//52 124//54 121//52
f 124//54 126//55 123//56
f 126//55 128//57 125//55
f 128//57 130//58 127//59
f 130//58 132//60 129//61
f 132//60 134//62 131//60
f 134//62 136//63 133//62
f 136//63 138//64 135//65
f 138//64 140//66 137//67
f 140//66 142//68 139//69
f 142//68 144//70 141//71
f 144//70 146//72 143//70
f 146//72 148//73 145//74
f 148//73 150//75 147//73
f 150//75 152//76 149//75
f 152//76 154//77 151//76
f 154//77 156//78 153//77
f 156//78 158//79 155//80
f 158//79 160//81 157//79
f 160//81 162//82 159//81
f 162//82 164//83 161//82
f 164//83 84//21 163//83
f 86//22 85//22 83//21
f 88//23 87//23 85//22
f 90//24 89//24 87//23
f 92//25 91//27 89//24
f 94//26 93//26 91//27
f 96//28 95//30 93//26
f 98//29 97//32 95//30
f 100//31 99//34 97//32
f 102//33 101//36 99//34
f 104//35 103//38 101//36
f 106//37 105//40 103//38
f 108//39 107//39 105//40
f 110//41 109//43 107//39
f 112//42 111//45 109//43
f 114//44 113//47 111//45
f 116//46 115//49 113//47
f 118//48 117//51 115//49
f 120//50 119//53 117//51
f 122//52 121//52 119//53
f 124//54 123//56 121//52
f 126//55 125//55 123//56
f 128//57 127//59 125//55
f 130//58 129//61 127//59
f 132//60 131//60 129//61
f 134//62 133//62 131//60
f 136//63 135//65 133//62
f 138//64 137//67 135//65
f 140//66 139//69 137//67
f 142//68 141//71 139//69
f 144//70 143//70 141//71
f 146//72 145//74 143//70
f 148//73 147//73 145//74
f 150//75 149//75 147//73
f 152//76 151//76 149//75
f 154//77 153//77 151//76
f 156//78 155//80 153//77
f 158//79 157//79 155//80
f 160//81 159//81 157//79
f 162//82 161//82 159//81
f 164//83 163//83 161//82
f 84//21 83//21 163//83
