# Blender v2.69 (sub 0) OBJ File: ''
# www.blender.org
o Text
v 0.189715 -0.269539 0.443218
v -0.157285 0.067461 0.443218
v -0.157285 -0.269539 0.443218
v -0.255285 -0.269539 0.443218
v -0.255285 0.412461 0.443218
v -0.157285 0.412461 0.443218
v -0.157285 0.100461 0.443218
v 0.129715 0.412461 0.443218
v 0.251715 0.412461 0.443218
v -0.045285 0.089461 0.443218
v 0.324715 -0.269539 0.443218
v 0.189715 -0.269539 0.243218
v -0.157285 0.067461 0.243218
v -0.157285 -0.269539 0.243218
v -0.255285 -0.269539 0.243218
v -0.255285 0.412461 0.243218
v -0.157285 0.412461 0.243218
v -0.157285 0.100461 0.243218
v 0.129715 0.412461 0.243218
v 0.251715 0.412461 0.243218
v -0.045285 0.089461 0.243218
v 0.324715 -0.269539 0.243218
v 0.189715 -0.269539 0.243218
v 0.189715 -0.269539 0.443218
v -0.157285 0.067461 0.243218
v -0.157285 0.067461 0.443218
v -0.157285 -0.269539 0.243218
v -0.157285 -0.269539 0.443218
v -0.255285 -0.269539 0.243218
v -0.255285 -0.269539 0.443218
v -0.255285 0.412461 0.243218
v -0.255285 0.412461 0.443218
v -0.157285 0.412461 0.243218
v -0.157285 0.412461 0.443218
v -0.157285 0.100461 0.243218
v -0.157285 0.100461 0.443218
v 0.129715 0.412461 0.243218
v 0.129715 0.412461 0.443218
v 0.251715 0.412461 0.243218
v 0.251715 0.412461 0.443218
v -0.045285 0.089461 0.243218
v -0.045285 0.089461 0.443218
v 0.324715 -0.269539 0.243218
v 0.324715 -0.269539 0.443218
vn 0.000000 0.000000 1.000000
vn 0.000001 0.000000 1.000000
vn -0.000001 0.000000 1.000000
vn 0.000000 -0.000000 -1.000000
vn -0.375920 -0.926652 0.000000
vn 0.389426 -0.921058 0.000000
vn 0.707107 -0.707107 0.000000
vn -0.707107 -0.707107 0.000000
vn -0.707107 0.707107 0.000000
vn 0.707107 0.707107 0.000000
vn 0.363333 0.931659 0.000000
vn -0.401867 0.915698 0.000000
vn 0.915658 0.401958 0.000000
vn 0.999594 0.028496 0.000000
vn 0.926740 -0.375702 0.000000
vn 0.926740 -0.375703 0.000000
s off
f 4//1 6//1 5//1
f 4//1 7//1 6//1
f 7//1 9//1 8//1
f 7//1 10//1 9//1
f 4//2 2//2 7//2
f 2//1 10//1 7//1
f 2//3 11//3 10//3
f 4//1 3//1 2//1
f 1//1 11//1 2//1
f 17//4 15//4 16//4
f 18//4 15//4 17//4
f 20//4 18//4 19//4
f 21//4 18//4 20//4
f 13//4 15//4 18//4
f 21//4 13//4 18//4
f 22//4 13//4 21//4
f 14//4 15//4 13//4
f 22//4 12//4 13//4
s 1
f 24//5 26//6 23//5
f 26//6 28//7 25//6
f 28//7 30//8 27//7
f 30//8 32//9 29//8
f 32//9 34//10 31//9
f 34//10 36//11 33//10
f 36//11 38//12 35//11
f 38//12 40//13 37//12
f 40//13 42//14 39//13
f 42//14 44//15 41//14
f 44//15 24//5 43//16
f 26//6 25//6 23//5
f 28//7 27//7 25//6
f 30//8 29//8 27//7
f 32//9 31//9 29//8
f 34//10 33//10 31//9
f 36//11 35//11 33//10
f 38//12 37//12 35//11
f 40//13 39//13 37//12
f 42//14 41//14 39//13
f 44//15 43//16 41//14
f 24//5 23//5 43//16
