# Blender v2.69 (sub 0) OBJ File: ''
# www.blender.org
o Text
v 0.232715 -0.181539 0.443218
v 0.232715 -0.269539 0.443218
v -0.173285 -0.269539 0.443218
v -0.173285 0.412461 0.443218
v -0.075285 0.412461 0.443218
v -0.075285 -0.181539 0.443218
v 0.232715 -0.181539 0.243218
v 0.232715 -0.269539 0.243218
v -0.173285 -0.269539 0.243218
v -0.173285 0.412461 0.243218
v -0.075285 0.412461 0.243218
v -0.075285 -0.181539 0.243218
v 0.232715 -0.181539 0.243218
v 0.232715 -0.181539 0.443218
v 0.232715 -0.269539 0.243218
v 0.232715 -0.269539 0.443218
v -0.173285 -0.269539 0.243218
v -0.173285 -0.269539 0.443218
v -0.173285 0.412461 0.243218
v -0.173285 0.412461 0.443218
v -0.075285 0.412461 0.243218
v -0.075285 0.412461 0.443218
v -0.075285 -0.181539 0.243218
v -0.075285 -0.181539 0.443218
vn 0.000000 0.000000 1.000000
vn -0.000001 0.000000 1.000000
vn 0.000000 -0.000000 -1.000000
vn 0.707107 0.707107 -0.000000
vn 0.707107 -0.707107 0.000000
vn -0.707107 -0.707107 0.000000
vn -0.707107 0.707107 0.000000
s off
f 3//1 5//1 4//1
f 3//2 6//2 5//2
f 3//1 1//1 6//1
f 3//1 2//1 1//1
f 11//3 9//3 10//3
f 12//3 9//3 11//3
f 7//3 9//3 12//3
f 8//3 9//3 7//3
s 1
f 14//4 16//5 13//4
f 16//5 18//6 15//5
f 18//6 20//7 17//6
f 20//7 22//4 19//7
f 22//4 24//4 21//4
f 24//4 14//4 23//4
f 16//5 15//5 13//4
f 18//6 17//6 15//5
f 20//7 19//7 17//6
f 22//4 21//4 19//7
f 24//4 23//4 21//4
f 14//4 13//4 23//4
