# Blender v2.69 (sub 0) OBJ File: ''
# www.blender.org
o Text
v 0.218215 -0.269539 0.443218
v 0.218215 0.261461 0.443218
v 0.216215 0.261461 0.443218
v 0.006215 -0.002539 0.443218
v -0.009785 -0.002539 0.443218
v -0.219785 0.261461 0.443218
v -0.221785 0.261461 0.443218
v -0.221785 -0.269539 0.443218
v -0.319785 -0.269539 0.443218
v -0.319785 0.412461 0.443218
v -0.227785 0.412461 0.443218
v -0.001785 0.132461 0.443218
v 0.225215 0.412461 0.443218
v 0.316215 0.412461 0.443218
v 0.316215 -0.269539 0.443218
v 0.218215 -0.269539 0.243218
v 0.218215 0.261461 0.243218
v 0.216215 0.261461 0.243218
v 0.006215 -0.002539 0.243218
v -0.009785 -0.002539 0.243218
v -0.219785 0.261461 0.243218
v -0.221785 0.261461 0.243218
v -0.221785 -0.269539 0.243218
v -0.319785 -0.269539 0.243218
v -0.319785 0.412461 0.243218
v -0.227785 0.412461 0.243218
v -0.001785 0.132461 0.243218
v 0.225215 0.412461 0.243218
v 0.316215 0.412461 0.243218
v 0.316215 -0.269539 0.243218
v 0.218215 -0.269539 0.243218
v 0.218215 -0.269539 0.443218
v 0.218215 0.261461 0.243218
v 0.218215 0.261461 0.443218
v 0.216215 0.261461 0.243218
v 0.216215 0.261461 0.443218
v 0.006215 -0.002539 0.243218
v 0.006215 -0.002539 0.443218
v -0.009785 -0.002539 0.243218
v -0.009785 -0.002539 0.443218
v -0.219785 0.261461 0.243218
v -0.219785 0.261461 0.443218
v -0.221785 0.261461 0.243218
v -0.221785 0.261461 0.443218
v -0.221785 -0.269539 0.243218
v -0.221785 -0.269539 0.443218
v -0.319785 -0.269539 0.243218
v -0.319785 -0.269539 0.443218
v -0.319785 0.412461 0.243218
v -0.319785 0.412461 0.443218
v -0.227785 0.412461 0.243218
v -0.227785 0.412461 0.443218
v -0.001785 0.132461 0.243218
v -0.001785 0.132461 0.443218
v 0.225215 0.412461 0.243218
v 0.225215 0.412461 0.443218
v 0.316215 0.412461 0.243218
v 0.316215 0.412461 0.443218
v 0.316215 -0.269539 0.243218
v 0.316215 -0.269539 0.443218
vn 0.000000 0.000000 1.000000
vn -0.000001 0.000000 1.000000
vn 0.000000 -0.000000 -1.000000
vn 0.000001 -0.000000 -1.000000
vn -0.707107 -0.707107 0.000000
vn 0.434439 -0.900701 0.000000
vn -0.707105 -0.707108 0.000000
vn 0.434440 -0.900701 0.000000
vn -0.434440 -0.900701 0.000000
vn 0.707105 -0.707108 0.000000
vn -0.434439 -0.900701 0.000000
vn 0.707107 -0.707107 0.000000
vn -0.707107 0.707107 0.000000
vn 0.431232 0.902241 0.000000
vn 0.001079 0.999999 0.000000
vn -0.430258 0.902706 0.000000
vn 0.707107 0.707107 0.000000
s off
f 9//1 11//1 10//1
f 9//2 7//2 11//2
f 7//1 6//1 11//1
f 6//1 12//1 11//1
f 12//1 14//1 13//1
f 12//2 3//2 14//2
f 3//1 2//1 14//1
f 2//1 15//1 14//1
f 9//1 8//1 7//1
f 5//1 12//1 6//1
f 12//1 4//1 3//1
f 1//1 15//1 2//1
f 5//1 4//1 12//1
f 26//3 24//3 25//3
f 22//3 24//3 26//3
f 21//3 22//3 26//3
f 27//3 21//3 26//3
f 29//3 27//3 28//3
f 18//4 27//4 29//4
f 17//3 18//3 29//3
f 30//3 17//3 29//3
f 23//3 24//3 22//3
f 27//3 20//3 21//3
f 19//3 27//3 18//3
f 30//3 16//3 17//3
f 19//3 20//3 27//3
s 1
f 32//5 34//5 31//5
f 34//5 36//6 33//7
f 36//6 38//8 35//8
f 38//8 40//9 37//8
f 40//9 42//9 39//9
f 42//9 44//10 41//11
f 44//10 46//12 43//12
f 46//12 48//5 45//12
f 48//5 50//13 47//5
f 50//13 52//14 49//13
f 52//14 54//15 51//14
f 54//15 56//16 53//15
f 56//16 58//17 55//16
f 58//17 60//12 57//17
f 60//12 32//5 59//12
f 34//5 33//7 31//5
f 36//6 35//8 33//7
f 38//8 37//8 35//8
f 40//9 39//9 37//8
f 42//9 41//11 39//9
f 44//10 43//12 41//11
f 46//12 45//12 43//12
f 48//5 47//5 45//12
f 50//13 49//13 47//5
f 52//14 51//14 49//13
f 54//15 53//15 51//14
f 56//16 55//16 53//15
f 58//17 57//17 55//16
f 60//12 59//12 57//17
f 32//5 31//5 59//12
