# Blender v2.69 (sub 0) OBJ File: ''
# www.blender.org
o Text
v 0.061285 0.410667 0.443218
v 0.093525 0.405442 0.443218
v 0.122480 0.397023 0.443218
v 0.148196 0.385646 0.443218
v 0.170718 0.371546 0.443218
v 0.190090 0.354961 0.443218
v 0.206358 0.336125 0.443218
v 0.219567 0.315275 0.443218
v 0.229762 0.292648 0.443218
v 0.236988 0.268479 0.443218
v 0.241290 0.243005 0.443218
v 0.242715 0.216461 0.443218
v 0.241207 0.190225 0.443218
v 0.236650 0.165160 0.443218
v 0.228996 0.141476 0.443218
v 0.218196 0.119387 0.443218
v 0.204202 0.099102 0.443218
v 0.186965 0.080836 0.443218
v 0.166436 0.064798 0.443218
v 0.142567 0.051201 0.443218
v 0.115308 0.040257 0.443218
v 0.084613 0.032178 0.443218
v 0.050431 0.027175 0.443218
v 0.012715 0.025461 0.443218
v -0.089285 0.025461 0.443218
v -0.089285 -0.269539 0.443218
v -0.187285 -0.269539 0.443218
v -0.187285 0.412461 0.443218
v 0.025715 0.412461 0.443218
v 0.021715 0.113461 0.443218
v 0.039411 0.114267 0.443218
v 0.055951 0.116664 0.443218
v 0.071262 0.120617 0.443218
v 0.085270 0.126090 0.443218
v 0.097904 0.133050 0.443218
v 0.109090 0.141461 0.443218
v 0.118755 0.151288 0.443218
v 0.126826 0.162498 0.443218
v 0.133230 0.175054 0.443218
v 0.137895 0.188924 0.443218
v 0.140748 0.204071 0.443218
v 0.141715 0.220461 0.443218
v 0.141132 0.233010 0.443218
v 0.139303 0.245525 0.443218
v 0.136105 0.257804 0.443218
v 0.131418 0.269646 0.443218
v 0.125120 0.280848 0.443218
v 0.117090 0.291211 0.443218
v 0.107205 0.300531 0.443218
v 0.095344 0.308609 0.443218
v 0.081387 0.315242 0.443218
v 0.065210 0.320229 0.443218
v 0.046693 0.323369 0.443218
v 0.025715 0.324461 0.443218
v -0.089285 0.324461 0.443218
v -0.089285 0.113461 0.443218
v 0.061285 0.410667 0.243218
v 0.093525 0.405442 0.243218
v 0.122480 0.397023 0.243218
v 0.148196 0.385646 0.243218
v 0.170718 0.371546 0.243218
v 0.190090 0.354961 0.243218
v 0.206358 0.336125 0.243218
v 0.219567 0.315275 0.243218
v 0.229762 0.292648 0.243218
v 0.236988 0.268479 0.243218
v 0.241290 0.243005 0.243218
v 0.242715 0.216461 0.243218
v 0.241207 0.190225 0.243218
v 0.236650 0.165160 0.243218
v 0.228996 0.141476 0.243218
v 0.218196 0.119387 0.243218
v 0.204202 0.099102 0.243218
v 0.186965 0.080836 0.243218
v 0.166436 0.064798 0.243218
v 0.142567 0.051201 0.243218
v 0.115308 0.040257 0.243218
v 0.084613 0.032178 0.243218
v 0.050431 0.027175 0.243218
v 0.012715 0.025461 0.243218
v -0.089285 0.025461 0.243218
v -0.089285 -0.269539 0.243218
v -0.187285 -0.269539 0.243218
v -0.187285 0.412461 0.243218
v 0.025715 0.412461 0.243218
v 0.021715 0.113461 0.243218
v 0.039411 0.114267 0.243218
v 0.055951 0.116664 0.243218
v 0.071262 0.120617 0.243218
v 0.085270 0.126090 0.243218
v 0.097904 0.133050 0.243218
v 0.109090 0.141461 0.243218
v 0.118755 0.151288 0.243218
v 0.126826 0.162498 0.243218
v 0.133230 0.175054 0.243218
v 0.137895 0.188924 0.243218
v 0.140748 0.204071 0.243218
v 0.141715 0.220461 0.243218
v 0.141132 0.233010 0.243218
v 0.139303 0.245525 0.243218
v 0.136105 0.257804 0.243218
v 0.131418 0.269646 0.243218
v 0.125120 0.280848 0.243218
v 0.117090 0.291211 0.243218
v 0.107205 0.300531 0.243218
v 0.095344 0.308609 0.243218
v 0.081387 0.315242 0.243218
v 0.065210 0.320229 0.243218
v 0.046693 0.323369 0.243218
v 0.025715 0.324461 0.243218
v -0.089285 0.324461 0.243218
v -0.089285 0.113461 0.243218
v 0.061285 0.410667 0.243218
v 0.061285 0.410667 0.443218
v 0.093525 0.405442 0.243218
v 0.093525 0.405442 0.443218
v 0.122480 0.397023 0.243218
v 0.122480 0.397023 0.443218
v 0.148196 0.385646 0.243218
v 0.148196 0.385646 0.443218
v 0.170718 0.371546 0.243218
v 0.170718 0.371546 0.443218
v 0.190090 0.354961 0.243218
v 0.190090 0.354961 0.443218
v 0.206358 0.336125 0.243218
v 0.206358 0.336125 0.443218
v 0.219567 0.315275 0.243218
v 0.219567 0.315275 0.443218
v 0.229762 0.292648 0.243218
v 0.229762 0.292648 0.443218
v 0.236988 0.268479 0.243218
v 0.236988 0.268479 0.443218
v 0.241290 0.243005 0.243218
v 0.241290 0.243005 0.443218
v 0.242715 0.216461 0.243218
v 0.242715 0.216461 0.443218
v 0.241207 0.190225 0.243218
v 0.241207 0.190225 0.443218
v 0.236650 0.165160 0.243218
v 0.236650 0.165160 0.443218
v 0.228996 0.141476 0.243218
v 0.228996 0.141476 0.443218
v 0.218196 0.119387 0.243218
v 0.218196 0.119387 0.443218
v 0.204202 0.099102 0.243218
v 0.204202 0.099102 0.443218
v 0.186965 0.080836 0.243218
v 0.186965 0.080836 0.443218
v 0.166436 0.064798 0.243218
v 0.166436 0.064798 0.443218
v 0.142567 0.051201 0.243218
v 0.142567 0.051201 0.443218
v 0.115308 0.040257 0.243218
v 0.115308 0.040257 0.443218
v 0.084613 0.032178 0.243218
v 0.084613 0.032178 0.443218
v 0.050431 0.027175 0.243218
v 0.050431 0.027175 0.443218
v 0.012715 0.025461 0.243218
v 0.012715 0.025461 0.443218
v -0.089285 0.025461 0.243218
v -0.089285 0.025461 0.443218
v -0.089285 -0.269539 0.243218
v -0.089285 -0.269539 0.443218
v -0.187285 -0.269539 0.243218
v -0.187285 -0.269539 0.443218
v -0.187285 0.412461 0.243218
v -0.187285 0.412461 0.443218
v 0.025715 0.412461 0.243218
v 0.025715 0.412461 0.443218
v 0.021715 0.113461 0.243218
v 0.021715 0.113461 0.443218
v 0.039411 0.114267 0.243218
v 0.039411 0.114267 0.443218
v 0.055951 0.116664 0.243218
v 0.055951 0.116664 0.443218
v 0.071262 0.120617 0.243218
v 0.071262 0.120617 0.443218
v 0.085270 0.126090 0.243218
v 0.085270 0.126090 0.443218
v 0.097904 0.133050 0.243218
v 0.097904 0.133050 0.443218
v 0.109090 0.141461 0.243218
v 0.109090 0.141461 0.443218
v 0.118755 0.151288 0.243218
v 0.118755 0.151288 0.443218
v 0.126826 0.162498 0.243218
v 0.126826 0.162498 0.443218
v 0.133230 0.175054 0.243218
v 0.133230 0.175054 0.443218
v 0.137895 0.188924 0.243218
v 0.137895 0.188924 0.443218
v 0.140748 0.204071 0.243218
v 0.140748 0.204071 0.443218
v 0.141715 0.220461 0.243218
v 0.141715 0.220461 0.443218
v 0.141132 0.233010 0.243218
v 0.141132 0.233010 0.443218
v 0.139303 0.245525 0.243218
v 0.139303 0.245525 0.443218
v 0.136105 0.257804 0.243218
v 0.136105 0.257804 0.443218
v 0.131418 0.269646 0.243218
v 0.131418 0.269646 0.443218
v 0.125120 0.280848 0.243218
v 0.125120 0.280848 0.443218
v 0.117090 0.291211 0.243218
v 0.117090 0.291211 0.443218
v 0.107205 0.300531 0.243218
v 0.107205 0.300531 0.443218
v 0.095344 0.308609 0.243218
v 0.095344 0.308609 0.443218
v 0.081387 0.315242 0.243218
v 0.081387 0.315242 0.443218
v 0.065210 0.320229 0.243218
v 0.065210 0.320229 0.443218
v 0.046693 0.323369 0.243218
v 0.046693 0.323369 0.443218
v 0.025715 0.324461 0.243218
v 0.025715 0.324461 0.443218
v -0.089285 0.324461 0.243218
v -0.089285 0.324461 0.443218
v -0.089285 0.113461 0.243218
v -0.089285 0.113461 0.443218
vn -0.000000 0.000000 1.000000
vn 0.000001 0.000000 1.000000
vn 0.000002 0.000000 1.000000
vn -0.000001 0.000000 1.000000
vn 0.000000 -0.000000 -1.000000
vn -0.000006 0.000000 -1.000000
vn 0.000000 -0.000001 -1.000000
vn 0.000001 0.000000 -1.000000
vn -0.000002 0.000000 -1.000000
vn 0.105327 0.994438 0.000000
vn 0.219990 0.975502 0.000000
vn 0.342659 0.939460 0.000000
vn 0.468812 0.883298 0.000000
vn 0.592136 0.805838 0.000000
vn 0.705578 0.708633 0.000000
vn 0.802962 0.596030 0.000000
vn 0.705577 0.708633 0.000000
vn 0.880435 0.474167 0.000000
vn 0.936976 0.349395 0.000000
vn 0.973911 0.226932 0.000000
vn 0.936975 0.349396 0.000000
vn 0.993905 0.110238 0.000000
vn 0.973911 0.226931 0.000000
vn 0.999998 -0.001910 0.000000
vn 0.993905 0.110237 0.000000
vn 0.992972 -0.118348 0.000000
vn 0.999998 -0.001908 0.000000
vn 0.969844 -0.243726 0.000000
vn 0.992972 -0.118346 0.000000
vn 0.927302 -0.374314 0.000000
vn 0.969845 -0.243724 0.000000
vn 0.863147 -0.504952 0.000000
vn 0.777469 -0.628921 0.000000
vn 0.673391 -0.739287 0.000000
vn 0.556766 -0.830670 0.000000
vn 0.673391 -0.739286 0.000000
vn 0.434777 -0.900538 0.000000
vn 0.556766 -0.830669 0.000000
vn 0.314168 -0.949367 0.000000
vn 0.199992 -0.979798 0.000000
vn 0.314168 -0.949368 0.000000
vn 0.095236 -0.995455 0.000000
vn 0.022714 -0.999742 0.000000
vn 0.707107 -0.707107 0.000000
vn -0.707107 -0.707107 0.000000
vn -0.707107 0.707107 0.000000
vn 0.025194 0.999683 0.000000
vn -0.022775 0.999741 0.000000
vn -0.094595 0.995516 0.000000
vn -0.196982 0.980407 0.000000
vn -0.307492 0.951551 0.000000
vn -0.424122 0.905605 0.000000
vn -0.307492 0.951550 0.000000
vn -0.543097 0.839670 0.000000
vn -0.658810 0.752309 0.000000
vn -0.764488 0.644638 0.000000
vn -0.658811 0.752309 0.000000
vn -0.853647 0.520852 0.000000
vn -0.921815 0.387630 0.000000
vn -0.967588 0.252536 0.000000
vn -0.921815 0.387629 0.000000
vn -0.992502 0.122228 0.000000
vn -0.999980 0.006265 0.000000
vn -0.992502 0.122227 0.000000
vn -0.995418 -0.095624 0.000000
vn -0.999980 0.006264 0.000000
vn -0.980079 -0.198608 0.000000
vn -0.950545 -0.310588 0.000000
vn -0.980079 -0.198607 0.000000
vn -0.902816 -0.430027 0.000000
vn -0.833308 -0.552809 0.000000
vn -0.740464 -0.672096 0.000000
vn -0.626426 -0.779481 0.000000
vn -0.740463 -0.672097 0.000000
vn -0.497542 -0.867440 0.000000
vn -0.362870 -0.931840 0.000000
vn -0.497541 -0.867440 0.000000
vn -0.231403 -0.972858 0.000000
vn -0.109758 -0.993958 0.000000
vn -0.025986 -0.999662 0.000000
vn 0.707107 0.707107 0.000000
s off
f 27//1 55//1 28//1
f 55//1 29//1 28//1
f 55//2 1//2 29//2
f 55//1 2//1 1//1
f 55//1 3//1 2//1
f 55//1 4//1 3//1
f 55//1 5//1 4//1
f 55//1 6//1 5//1
f 55//1 7//1 6//1
f 55//1 54//1 7//1
f 54//1 8//1 7//1
f 27//2 56//2 55//2
f 53//1 8//1 54//1
f 52//1 8//1 53//1
f 51//1 8//1 52//1
f 51//1 9//1 8//1
f 50//1 9//1 51//1
f 49//1 9//1 50//1
f 48//1 9//1 49//1
f 48//1 10//1 9//1
f 47//3 10//3 48//3
f 46//1 10//1 47//1
f 45//1 10//1 46//1
f 45//1 11//1 10//1
f 44//1 11//1 45//1
f 43//2 11//2 44//2
f 43//1 12//1 11//1
f 42//2 12//2 43//2
f 41//1 12//1 42//1
f 41//2 13//2 12//2
f 40//1 13//1 41//1
f 40//1 14//1 13//1
f 39//1 14//1 40//1
f 38//1 14//1 39//1
f 38//4 15//4 14//4
f 37//1 15//1 38//1
f 36//1 15//1 37//1
f 36//4 16//4 15//4
f 35//1 16//1 36//1
f 34//1 16//1 35//1
f 33//1 16//1 34//1
f 32//1 16//1 33//1
f 32//1 17//1 16//1
f 31//1 17//1 32//1
f 30//1 17//1 31//1
f 27//1 25//1 56//1
f 25//1 30//1 56//1
f 25//1 17//1 30//1
f 25//1 18//1 17//1
f 25//1 19//1 18//1
f 25//2 20//2 19//2
f 25//1 21//1 20//1
f 25//1 22//1 21//1
f 25//1 23//1 22//1
f 25//1 24//1 23//1
f 27//1 26//1 25//1
f 111//5 83//5 84//5
f 85//5 111//5 84//5
f 57//5 111//5 85//5
f 58//5 111//5 57//5
f 59//5 111//5 58//5
f 60//5 111//5 59//5
f 61//5 111//5 60//5
f 62//5 111//5 61//5
f 63//5 111//5 62//5
f 110//5 111//5 63//5
f 64//5 110//5 63//5
f 112//5 83//5 111//5
f 64//6 109//6 110//6
f 64//5 108//5 109//5
f 64//5 107//5 108//5
f 65//5 107//5 64//5
f 65//5 106//5 107//5
f 65//5 105//5 106//5
f 65//5 104//5 105//5
f 66//7 104//7 65//7
f 66//5 103//5 104//5
f 66//7 102//7 103//7
f 66//5 101//5 102//5
f 67//5 101//5 66//5
f 67//5 100//5 101//5
f 67//5 99//5 100//5
f 68//5 99//5 67//5
f 68//5 98//5 99//5
f 68//5 97//5 98//5
f 69//5 97//5 68//5
f 69//5 96//5 97//5
f 70//7 96//7 69//7
f 70//5 95//5 96//5
f 70//7 94//7 95//7
f 71//5 94//5 70//5
f 71//5 93//5 94//5
f 71//5 92//5 93//5
f 72//5 92//5 71//5
f 72//5 91//5 92//5
f 72//5 90//5 91//5
f 72//5 89//5 90//5
f 72//5 88//5 89//5
f 73//5 88//5 72//5
f 73//5 87//5 88//5
f 73//8 86//8 87//8
f 81//9 83//9 112//9
f 86//5 81//5 112//5
f 73//5 81//5 86//5
f 74//5 81//5 73//5
f 75//5 81//5 74//5
f 76//5 81//5 75//5
f 77//5 81//5 76//5
f 78//5 81//5 77//5
f 79//5 81//5 78//5
f 80//5 81//5 79//5
f 82//5 83//5 81//5
s 1
f 114//10 116//11 113//10
f 116//11 118//12 115//11
f 118//12 120//13 117//12
f 120//13 122//14 119//13
f 122//14 124//15 121//14
f 124//15 126//16 123//17
f 126//16 128//18 125//16
f 128//18 130//19 127//18
f 130//19 132//20 129//21
f 132//20 134//22 131//23
f 134//22 136//24 133//25
f 136//24 138//26 135//27
f 138//26 140//28 137//29
f 140//28 142//30 139//31
f 142//30 144//32 141//30
f 144//32 146//33 143//32
f 146//33 148//34 145//33
f 148//34 150//35 147//36
f 150//35 152//37 149//38
f 152//37 154//39 151//37
f 154//39 156//40 153//41
f 156//40 158//42 155//40
f 158//42 160//43 157//42
f 160//43 162//44 159//43
f 162//44 164//44 161//44
f 164//44 166//45 163//44
f 166//45 168//46 165//45
f 168//46 170//47 167//46
f 170//47 114//10 169//47
f 172//48 174//49 171//48
f 174//49 176//50 173//49
f 176//50 178//51 175//50
f 178//51 180//52 177//53
f 180//52 182//54 179//52
f 182//54 184//55 181//54
f 184//55 186//56 183//57
f 186//56 188//58 185//56
f 188//58 190//59 187//58
f 190//59 192//60 189//61
f 192//60 194//62 191//60
f 194//62 196//63 193//64
f 196//63 198//65 195//66
f 198//65 200//67 197//65
f 200//67 202//68 199//69
f 202//68 204//70 201//68
f 204//70 206//71 203//70
f 206//71 208//72 205//71
f 208//72 210//73 207//74
f 210//73 212//75 209//73
f 212//75 214//76 211//77
f 214//76 216//78 213//76
f 216//78 218//79 215//78
f 218//79 220//80 217//79
f 220//80 222//44 219//80
f 222//44 224//81 221//44
f 224//81 172//48 223//81
f 116//11 115//11 113//10
f 118//12 117//12 115//11
f 120//13 119//13 117//12
f 122//14 121//14 119//13
f 124//15 123//17 121//14
f 126//16 125//16 123//17
f 128//18 127//18 125//16
f 130//19 129//21 127//18
f 132//20 131//23 129//21
f 134//22 133//25 131//23
f 136//24 135//27 133//25
f 138//26 137//29 135//27
f 140//28 139//31 137//29
f 142//30 141//30 139//31
f 144//32 143//32 141//30
f 146//33 145//33 143//32
f 148//34 147//36 145//33
f 150//35 149//38 147//36
f 152//37 151//37 149//38
f 154//39 153//41 151//37
f 156//40 155//40 153//41
f 158//42 157//42 155//40
f 160//43 159//43 157//42
f 162//44 161//44 159//43
f 164//44 163//44 161//44
f 166//45 165//45 163//44
f 168//46 167//46 165//45
f 170//47 169//47 167//46
f 114//10 113//10 169//47
f 174//49 173//49 171//48
f 176//50 175//50 173//49
f 178//51 177//53 175//50
f 180//52 179//52 177//53
f 182//54 181//54 179//52
f 184//55 183//57 181//54
f 186//56 185//56 183//57
f 188//58 187//58 185//56
f 190//59 189//61 187//58
f 192//60 191//60 189//61
f 194//62 193//64 191//60
f 196//63 195//66 193//64
f 198//65 197//65 195//66
f 200//67 199//69 197//65
f 202//68 201//68 199//69
f 204//70 203//70 201//68
f 206//71 205//71 203//70
f 208//72 207//74 205//71
f 210//73 209//73 207//74
f 212//75 211//77 209//73
f 214//76 213//76 211//77
f 216//78 215//78 213//76
f 218//79 217//79 215//78
f 220//80 219//80 217//79
f 222//44 221//44 219//80
f 224//81 223//81 221//44
f 172//48 171//48 223//81
