# Blender v2.69 (sub 0) OBJ File: ''
# www.blender.org
v 0.370186 -0.546485 -4.248400
v 0.370186 -0.546485 3.034025
v -2.370186 -0.546485 3.034024
v -2.370185 -0.546485 -4.248401
v 0.370187 0.546485 -4.248398
v 0.370185 0.546485 3.034027
v -2.370187 0.546485 3.034024
v -2.370186 0.546485 -4.248400
vn 0.000000 -1.000000 0.000000
vn 0.000000 1.000000 0.000000
vn 1.000000 -0.000001 0.000000
vn -0.000000 -0.000001 1.000000
vn -1.000000 -0.000000 -0.000000
vn 0.000001 0.000001 -1.000000
vn 1.000000 0.000000 0.000000
vn -0.000001 0.000000 1.000000
vn -1.000000 -0.000001 -0.000000
vn 0.000000 0.000001 -1.000000
s off
f 1//1 2//1 4//1
f 5//2 8//2 6//2
f 1//3 5//3 2//3
f 2//4 6//4 3//4
f 3//5 7//5 4//5
f 5//6 1//6 8//6
f 2//1 3//1 4//1
f 8//2 7//2 6//2
f 5//7 6//7 2//7
f 6//8 7//8 3//8
f 7//9 8//9 4//9
f 1//10 4//10 8//10
