# Blender v2.69 (sub 0) OBJ File: ''
# www.blender.org
o Text
v 0.299715 0.412461 0.443218
v 0.046715 0.090461 0.443218
v 0.046715 -0.269539 0.443218
v -0.051285 -0.269539 0.443218
v -0.051285 0.091461 0.443218
v -0.304285 0.412461 0.443218
v -0.186285 0.412461 0.443218
v -0.003285 0.177461 0.443218
v 0.181715 0.412461 0.443218
v 0.299715 0.412461 0.243218
v 0.046715 0.090461 0.243218
v 0.046715 -0.269539 0.243218
v -0.051285 -0.269539 0.243218
v -0.051285 0.091461 0.243218
v -0.304285 0.412461 0.243218
v -0.186285 0.412461 0.243218
v -0.003285 0.177461 0.243218
v 0.181715 0.412461 0.243218
v 0.299715 0.412461 0.243218
v 0.299715 0.412461 0.443218
v 0.046715 0.090461 0.243218
v 0.046715 0.090461 0.443218
v 0.046715 -0.269539 0.243218
v 0.046715 -0.269539 0.443218
v -0.051285 -0.269539 0.243218
v -0.051285 -0.269539 0.443218
v -0.051285 0.091461 0.243218
v -0.051285 0.091461 0.443218
v -0.304285 0.412461 0.243218
v -0.304285 0.412461 0.443218
v -0.186285 0.412461 0.243218
v -0.186285 0.412461 0.443218
v -0.003285 0.177461 0.243218
v -0.003285 0.177461 0.443218
v 0.181715 0.412461 0.243218
v 0.181715 0.412461 0.443218
vn 0.000000 0.000000 1.000000
vn 0.000001 0.000000 1.000000
vn 0.000000 -0.000000 -1.000000
vn -0.000001 -0.000000 -1.000000
vn 0.899395 0.437137 0.000000
vn 0.945071 -0.326865 0.000000
vn 0.899395 0.437138 0.000000
vn 0.707107 -0.707107 0.000000
vn -0.707107 -0.707107 0.000000
vn -0.944824 -0.327579 0.000000
vn -0.899725 0.436458 0.000000
vn 0.439087 0.898445 0.000000
vn 0.002638 0.999997 0.000000
vn -0.436715 0.899600 0.000000
s off
f 5//1 7//1 6//1
f 5//2 8//2 7//2
f 8//1 1//1 9//1
f 8//1 2//1 1//1
f 5//1 2//1 8//1
f 4//2 2//2 5//2
f 4//1 3//1 2//1
f 16//3 14//3 15//3
f 17//4 14//4 16//4
f 10//3 17//3 18//3
f 11//3 17//3 10//3
f 11//3 14//3 17//3
f 11//3 13//3 14//3
f 12//3 13//3 11//3
s 1
f 20//5 22//6 19//7
f 22//6 24//8 21//6
f 24//8 26//9 23//8
f 26//9 28//10 25//9
f 28//10 30//11 27//10
f 30//11 32//12 29//11
f 32//12 34//13 31//12
f 34//13 36//14 33//13
f 36//14 20//5 35//14
f 22//6 21//6 19//7
f 24//8 23//8 21//6
f 26//9 25//9 23//8
f 28//10 27//10 25//9
f 30//11 29//11 27//10
f 32//12 31//12 29//11
f 34//13 33//13 31//12
f 36//14 35//14 33//13
f 20//5 19//7 35//14
