# Blender v2.69 (sub 0) OBJ File: ''
# www.blender.org
o Text
v -0.282285 0.412461 0.443218
v 0.305715 0.412461 0.443218
v -0.128285 -0.181539 0.443218
v 0.305715 -0.181539 0.443218
v 0.305715 -0.269539 0.443218
v -0.309285 -0.269539 0.443218
v 0.124715 0.324461 0.443218
v -0.282285 0.324461 0.443218
v -0.282285 0.412461 0.243218
v 0.305715 0.412461 0.243218
v -0.128285 -0.181539 0.243218
v 0.305715 -0.181539 0.243218
v 0.305715 -0.269539 0.243218
v -0.309285 -0.269539 0.243218
v 0.124715 0.324461 0.243218
v -0.282285 0.324461 0.243218
v -0.282285 0.412461 0.243218
v -0.282285 0.412461 0.443218
v 0.305715 0.412461 0.243218
v 0.305715 0.412461 0.443218
v -0.128285 -0.181539 0.243218
v -0.128285 -0.181539 0.443218
v 0.305715 -0.181539 0.243218
v 0.305715 -0.181539 0.443218
v 0.305715 -0.269539 0.243218
v 0.305715 -0.269539 0.443218
v -0.309285 -0.269539 0.243218
v -0.309285 -0.269539 0.443218
v 0.124715 0.324461 0.243218
v 0.124715 0.324461 0.443218
v -0.282285 0.324461 0.243218
v -0.282285 0.324461 0.443218
vn 0.000000 0.000000 1.000000
vn -0.000001 0.000000 1.000000
vn 0.000000 0.000000 -1.000000
vn -0.707107 0.707107 0.000000
vn 0.891613 0.452798 0.000000
vn 0.891613 0.452797 -0.000000
vn 0.707107 0.707107 -0.000000
vn 0.707107 -0.707107 0.000000
vn -0.891613 -0.452798 0.000000
vn -0.707107 -0.707107 0.000000
s off
f 8//1 2//1 1//1
f 8//1 7//1 2//1
f 7//2 3//2 2//2
f 6//1 3//1 7//1
f 6//1 4//1 3//1
f 6//1 5//1 4//1
f 10//3 16//3 9//3
f 15//3 16//3 10//3
f 11//3 15//3 10//3
f 11//3 14//3 15//3
f 12//3 14//3 11//3
f 13//3 14//3 12//3
s 1
f 18//4 20//5 17//4
f 20//5 22//6 19//5
f 22//6 24//7 21//5
f 24//7 26//8 23//7
f 26//8 28//9 25//8
f 28//9 30//9 27//9
f 30//9 32//10 29//9
f 32//10 18//4 31//10
f 20//5 19//5 17//4
f 22//6 21//5 19//5
f 24//7 23//7 21//5
f 26//8 25//8 23//7
f 28//9 27//9 25//8
f 30//9 29//9 27//9
f 32//10 31//10 29//9
f 18//4 17//4 31//10
